# Blender v2.81 (sub 16) OBJ File: ''
# www.blender.org
mtllib panda_table2.mtl
o Part_Studio_1
v 0.609600 0.609600 0.000000
v 0.609600 -0.609600 -0.000000
v -0.609600 0.609600 0.000000
v -0.609600 -0.609600 -0.000000
v 0.609600 -0.609600 0.025400
v 0.609600 0.609600 0.025400
v -0.609600 -0.609600 0.025400
v -0.609600 0.609600 0.025400
v -0.584200 -0.524200 -0.000000
v -0.584200 -0.524200 -0.889000
v -0.583871 -0.530472 -0.889000
v -0.583871 -0.530472 -0.000000
v -0.582889 -0.536675 -0.889000
v -0.582889 -0.536675 -0.000000
v -0.581263 -0.542741 -0.889000
v -0.581263 -0.542741 -0.000000
v -0.579013 -0.548604 -0.889000
v -0.579013 -0.548604 -0.000000
v -0.576162 -0.554200 -0.889000
v -0.576162 -0.554200 -0.000000
v -0.572741 -0.559467 -0.889000
v -0.572741 -0.559467 -0.000000
v -0.568789 -0.564348 -0.889000
v -0.568789 -0.564348 -0.000000
v -0.564348 -0.568789 -0.889000
v -0.564348 -0.568789 -0.000000
v -0.559467 -0.572741 -0.889000
v -0.559467 -0.572741 -0.000000
v -0.554200 -0.576161 -0.889000
v -0.554200 -0.576162 -0.000000
v -0.548604 -0.579013 -0.889000
v -0.548604 -0.579013 -0.000000
v -0.542741 -0.581263 -0.889000
v -0.542741 -0.581263 -0.000000
v -0.536675 -0.582889 -0.889000
v -0.536675 -0.582889 -0.000000
v -0.530472 -0.583871 -0.889000
v -0.530472 -0.583871 -0.000000
v -0.524200 -0.584200 -0.889000
v -0.524200 -0.584200 -0.000000
v -0.584200 -0.482600 -0.000000
v -0.584200 -0.482600 -0.889000
v -0.482600 -0.584200 -0.889000
v -0.482600 -0.584200 -0.000000
v -0.482600 -0.482600 -0.889000
v -0.482600 -0.482600 -0.000000
v -0.524200 0.584200 0.000000
v -0.524200 0.584200 -0.889000
v -0.530472 0.583871 -0.889000
v -0.530472 0.583871 0.000000
v -0.536675 0.582889 -0.889000
v -0.536675 0.582889 0.000000
v -0.542741 0.581263 -0.889000
v -0.542741 0.581263 0.000000
v -0.548604 0.579013 -0.889000
v -0.548604 0.579013 0.000000
v -0.554200 0.576162 -0.889000
v -0.554200 0.576162 0.000000
v -0.559467 0.572741 -0.889000
v -0.559467 0.572741 0.000000
v -0.564348 0.568789 -0.889000
v -0.564348 0.568789 0.000000
v -0.568789 0.564348 -0.889000
v -0.568789 0.564348 0.000000
v -0.572741 0.559467 -0.889000
v -0.572741 0.559467 0.000000
v -0.576162 0.554200 -0.889000
v -0.576162 0.554200 0.000000
v -0.579013 0.548604 -0.889000
v -0.579013 0.548604 0.000000
v -0.581263 0.542741 -0.889000
v -0.581263 0.542741 0.000000
v -0.582889 0.536675 -0.889000
v -0.582889 0.536675 0.000000
v -0.583871 0.530472 -0.889000
v -0.583871 0.530472 0.000000
v -0.584200 0.524200 -0.889000
v -0.584200 0.524200 0.000000
v -0.584200 0.482600 -0.889000
v -0.584200 0.482600 0.000000
v -0.482600 0.584200 0.000000
v -0.482600 0.584200 -0.889000
v -0.482600 0.482600 -0.889000
v -0.482600 0.482600 0.000000
v 0.584200 0.524200 0.000000
v 0.584200 0.524200 -0.889000
v 0.583871 0.530472 -0.889000
v 0.583871 0.530472 0.000000
v 0.582889 0.536675 -0.889000
v 0.582889 0.536675 0.000000
v 0.581263 0.542741 -0.889000
v 0.581263 0.542741 0.000000
v 0.579013 0.548604 -0.889000
v 0.579013 0.548604 0.000000
v 0.576162 0.554200 -0.889000
v 0.576162 0.554200 0.000000
v 0.572741 0.559467 -0.889000
v 0.572741 0.559467 0.000000
v 0.568789 0.564348 -0.889000
v 0.568789 0.564348 0.000000
v 0.564348 0.568789 -0.889000
v 0.564348 0.568789 0.000000
v 0.559467 0.572741 -0.889000
v 0.559467 0.572741 0.000000
v 0.554200 0.576162 -0.889000
v 0.554200 0.576162 0.000000
v 0.548604 0.579013 -0.889000
v 0.548604 0.579013 0.000000
v 0.542741 0.581263 -0.889000
v 0.542741 0.581263 0.000000
v 0.536675 0.582889 -0.889000
v 0.536675 0.582889 0.000000
v 0.530472 0.583871 -0.889000
v 0.530472 0.583871 0.000000
v 0.524200 0.584200 -0.889000
v 0.524200 0.584200 0.000000
v 0.482600 0.584200 -0.889000
v 0.482600 0.584200 0.000000
v 0.584200 0.482600 0.000000
v 0.584200 0.482600 -0.889000
v 0.482600 0.482600 -0.889000
v 0.482600 0.482600 0.000000
v 0.524200 -0.584200 -0.000000
v 0.524200 -0.584200 -0.889000
v 0.530472 -0.583871 -0.889000
v 0.530472 -0.583871 -0.000000
v 0.536675 -0.582889 -0.889000
v 0.536675 -0.582889 -0.000000
v 0.542741 -0.581263 -0.889000
v 0.542741 -0.581263 -0.000000
v 0.548604 -0.579013 -0.889000
v 0.548604 -0.579013 -0.000000
v 0.554200 -0.576161 -0.889000
v 0.554200 -0.576162 -0.000000
v 0.559467 -0.572741 -0.889000
v 0.559467 -0.572741 -0.000000
v 0.564348 -0.568789 -0.889000
v 0.564348 -0.568789 -0.000000
v 0.568789 -0.564348 -0.889000
v 0.568789 -0.564348 -0.000000
v 0.572741 -0.559467 -0.889000
v 0.572741 -0.559467 -0.000000
v 0.576162 -0.554200 -0.889000
v 0.576162 -0.554200 -0.000000
v 0.579013 -0.548604 -0.889000
v 0.579013 -0.548604 -0.000000
v 0.581263 -0.542741 -0.889000
v 0.581263 -0.542741 -0.000000
v 0.582889 -0.536675 -0.889000
v 0.582889 -0.536675 -0.000000
v 0.583871 -0.530472 -0.889000
v 0.583871 -0.530472 -0.000000
v 0.584200 -0.524200 -0.889000
v 0.584200 -0.524200 -0.000000
v 0.584200 -0.482600 -0.889000
v 0.584200 -0.482600 -0.000000
v 0.482600 -0.584200 -0.000000
v 0.482600 -0.584200 -0.889000
v 0.482600 -0.482600 -0.889000
v 0.482600 -0.482600 -0.000000
vn 0.0000 0.0000 -1.0000
vn 0.0000 -0.0000 1.0000
vn 0.0000 1.0000 0.0000
vn 1.0000 -0.0000 0.0000
vn -1.0000 0.0000 0.0000
vn 0.0000 -1.0000 0.0000
vn -0.9986 -0.0524 -0.0000
vn -0.9986 -0.0523 -0.0000
vn -0.9877 -0.1564 -0.0000
vn -0.9659 -0.2588 0.0000
vn -0.9336 -0.3583 0.0000
vn -0.9336 -0.3584 -0.0000
vn -0.8910 -0.4540 -0.0000
vn -0.8387 -0.5446 0.0000
vn -0.7772 -0.6293 -0.0000
vn -0.7771 -0.6293 -0.0000
vn -0.7071 -0.7071 0.0000
vn -0.6293 -0.7771 -0.0000
vn -0.6293 -0.7772 -0.0000
vn -0.5446 -0.8387 0.0000
vn -0.4540 -0.8910 -0.0000
vn -0.3584 -0.9336 -0.0000
vn -0.2588 -0.9659 0.0000
vn -0.1564 -0.9877 -0.0000
vn -0.0523 -0.9986 0.0000
vn -0.0523 0.9986 0.0000
vn -0.1564 0.9877 0.0000
vn -0.2588 0.9659 0.0000
vn -0.3584 0.9336 0.0000
vn -0.4540 0.8910 0.0000
vn -0.5446 0.8387 0.0000
vn -0.6293 0.7772 0.0000
vn -0.6293 0.7771 0.0000
vn -0.7071 0.7071 0.0000
vn -0.7771 0.6293 0.0000
vn -0.7772 0.6293 0.0000
vn -0.8387 0.5446 0.0000
vn -0.8910 0.4540 0.0000
vn -0.9336 0.3584 0.0000
vn -0.9336 0.3583 0.0000
vn -0.9659 0.2588 0.0000
vn -0.9877 0.1564 0.0000
vn -0.9986 0.0523 0.0000
vn -0.9986 0.0524 0.0000
vn 0.9986 0.0524 0.0000
vn 0.9986 0.0523 0.0000
vn 0.9877 0.1564 0.0000
vn 0.9659 0.2588 0.0000
vn 0.9336 0.3583 0.0000
vn 0.9336 0.3584 0.0000
vn 0.8910 0.4540 0.0000
vn 0.8387 0.5446 0.0000
vn 0.7772 0.6293 0.0000
vn 0.7771 0.6293 0.0000
vn 0.7071 0.7071 0.0000
vn 0.6293 0.7771 0.0000
vn 0.6293 0.7772 0.0000
vn 0.5446 0.8387 0.0000
vn 0.4540 0.8910 0.0000
vn 0.3584 0.9336 0.0000
vn 0.2588 0.9659 0.0000
vn 0.1564 0.9877 0.0000
vn 0.0523 0.9986 0.0000
vn 0.0523 -0.9986 0.0000
vn 0.1564 -0.9877 -0.0000
vn 0.2588 -0.9659 0.0000
vn 0.3584 -0.9336 -0.0000
vn 0.4540 -0.8910 -0.0000
vn 0.5446 -0.8387 0.0000
vn 0.6293 -0.7772 -0.0000
vn 0.6293 -0.7771 -0.0000
vn 0.7071 -0.7071 0.0000
vn 0.7771 -0.6293 -0.0000
vn 0.7772 -0.6293 -0.0000
vn 0.8387 -0.5446 0.0000
vn 0.8910 -0.4540 -0.0000
vn 0.9336 -0.3584 0.0000
vn 0.9336 -0.3583 -0.0000
vn 0.9659 -0.2588 0.0000
vn 0.9877 -0.1564 -0.0000
vn 0.9986 -0.0523 -0.0000
vn 0.9986 -0.0524 -0.0000
usemtl None
s off
f 1//1 2//1 3//1
f 2//1 4//1 3//1
f 5//2 6//2 7//2
f 6//2 8//2 7//2
f 8//3 6//3 3//3
f 6//3 1//3 3//3
f 6//4 5//4 1//4
f 5//4 2//4 1//4
f 7//5 8//5 4//5
f 8//5 3//5 4//5
f 5//6 7//6 2//6
f 7//6 4//6 2//6
f 9//7 10//7 11//7
f 9//8 11//8 12//8
f 11//9 13//9 12//9
f 12//9 13//9 14//9
f 13//10 15//10 14//10
f 14//10 15//10 16//10
f 15//11 17//11 16//11
f 16//12 17//12 18//12
f 17//13 19//13 18//13
f 18//13 19//13 20//13
f 19//14 21//14 20//14
f 20//14 21//14 22//14
f 21//15 23//15 22//15
f 22//16 23//16 24//16
f 23//17 25//17 24//17
f 24//17 25//17 26//17
f 25//18 27//18 26//18
f 26//19 27//19 28//19
f 27//20 29//20 28//20
f 28//20 29//20 30//20
f 29//21 31//21 30//21
f 30//21 31//21 32//21
f 31//22 33//22 32//22
f 32//22 33//22 34//22
f 33//23 35//23 34//23
f 34//23 35//23 36//23
f 35//24 37//24 36//24
f 36//24 37//24 38//24
f 37//25 39//25 38//25
f 38//25 39//25 40//25
f 9//5 41//5 10//5
f 41//5 42//5 10//5
f 39//6 43//6 40//6
f 43//6 44//6 40//6
f 45//3 42//3 46//3
f 42//3 41//3 46//3
f 43//4 45//4 44//4
f 45//4 46//4 44//4
f 43//1 39//1 45//1
f 39//1 37//1 45//1
f 13//1 11//1 45//1
f 11//1 10//1 45//1
f 45//1 10//1 42//1
f 25//1 23//1 45//1
f 23//1 21//1 45//1
f 45//1 21//1 19//1
f 37//1 35//1 45//1
f 35//1 33//1 45//1
f 45//1 33//1 31//1
f 31//1 29//1 45//1
f 29//1 27//1 45//1
f 45//1 27//1 25//1
f 19//1 17//1 45//1
f 17//1 15//1 45//1
f 45//1 15//1 13//1
f 40//2 44//2 46//2
f 40//2 46//2 38//2
f 46//2 41//2 9//2
f 9//2 12//2 46//2
f 12//2 14//2 46//2
f 46//2 14//2 16//2
f 22//2 24//2 46//2
f 24//2 26//2 46//2
f 16//2 18//2 46//2
f 18//2 20//2 46//2
f 46//2 20//2 22//2
f 26//2 28//2 46//2
f 28//2 30//2 46//2
f 46//2 30//2 32//2
f 32//2 34//2 46//2
f 34//2 36//2 46//2
f 46//2 36//2 38//2
f 47//26 48//26 49//26
f 47//26 49//26 50//26
f 49//27 51//27 50//27
f 50//27 51//27 52//27
f 51//28 53//28 52//28
f 52//28 53//28 54//28
f 53//29 55//29 54//29
f 54//29 55//29 56//29
f 55//30 57//30 56//30
f 56//30 57//30 58//30
f 57//31 59//31 58//31
f 58//31 59//31 60//31
f 59//32 61//32 60//32
f 60//33 61//33 62//33
f 61//34 63//34 62//34
f 62//34 63//34 64//34
f 63//35 65//35 64//35
f 64//36 65//36 66//36
f 65//37 67//37 66//37
f 66//37 67//37 68//37
f 67//38 69//38 68//38
f 68//38 69//38 70//38
f 69//39 71//39 70//39
f 70//40 71//40 72//40
f 71//41 73//41 72//41
f 72//41 73//41 74//41
f 73//42 75//42 74//42
f 74//42 75//42 76//42
f 75//43 77//43 76//43
f 76//44 77//44 78//44
f 77//5 79//5 78//5
f 79//5 80//5 78//5
f 47//3 81//3 48//3
f 81//3 82//3 48//3
f 79//6 83//6 80//6
f 83//6 84//6 80//6
f 83//4 82//4 84//4
f 82//4 81//4 84//4
f 78//2 80//2 84//2
f 78//2 84//2 76//2
f 81//2 47//2 84//2
f 47//2 50//2 84//2
f 50//2 52//2 84//2
f 52//2 54//2 84//2
f 84//2 54//2 56//2
f 84//2 62//2 64//2
f 56//2 58//2 84//2
f 58//2 60//2 84//2
f 84//2 60//2 62//2
f 64//2 66//2 84//2
f 66//2 68//2 84//2
f 84//2 68//2 70//2
f 70//2 72//2 84//2
f 72//2 74//2 84//2
f 84//2 74//2 76//2
f 53//1 51//1 83//1
f 79//1 77//1 83//1
f 77//1 75//1 83//1
f 51//1 49//1 83//1
f 49//1 48//1 83//1
f 83//1 48//1 82//1
f 63//1 61//1 83//1
f 61//1 59//1 83//1
f 75//1 73//1 83//1
f 73//1 71//1 83//1
f 83//1 71//1 69//1
f 69//1 67//1 83//1
f 67//1 65//1 83//1
f 83//1 65//1 63//1
f 59//1 57//1 83//1
f 57//1 55//1 83//1
f 83//1 55//1 53//1
f 85//45 86//45 87//45
f 85//46 87//46 88//46
f 87//47 89//47 88//47
f 88//47 89//47 90//47
f 89//48 91//48 90//48
f 90//48 91//48 92//48
f 91//49 93//49 92//49
f 92//50 93//50 94//50
f 93//51 95//51 94//51
f 94//51 95//51 96//51
f 95//52 97//52 96//52
f 96//52 97//52 98//52
f 97//53 99//53 98//53
f 98//54 99//54 100//54
f 99//55 101//55 100//55
f 100//55 101//55 102//55
f 101//56 103//56 102//56
f 102//57 103//57 104//57
f 103//58 105//58 104//58
f 104//58 105//58 106//58
f 105//59 107//59 106//59
f 106//59 107//59 108//59
f 107//60 109//60 108//60
f 108//60 109//60 110//60
f 109//61 111//61 110//61
f 110//61 111//61 112//61
f 111//62 113//62 112//62
f 112//62 113//62 114//62
f 113//63 115//63 114//63
f 114//63 115//63 116//63
f 115//3 117//3 116//3
f 117//3 118//3 116//3
f 85//4 119//4 86//4
f 119//4 120//4 86//4
f 117//5 121//5 118//5
f 121//5 122//5 118//5
f 121//6 120//6 122//6
f 120//6 119//6 122//6
f 116//2 118//2 122//2
f 116//2 122//2 114//2
f 119//2 85//2 122//2
f 85//2 88//2 122//2
f 88//2 90//2 122//2
f 90//2 92//2 122//2
f 122//2 92//2 94//2
f 122//2 100//2 102//2
f 94//2 96//2 122//2
f 96//2 98//2 122//2
f 122//2 98//2 100//2
f 102//2 104//2 122//2
f 104//2 106//2 122//2
f 122//2 106//2 108//2
f 108//2 110//2 122//2
f 110//2 112//2 122//2
f 122//2 112//2 114//2
f 91//1 89//1 121//1
f 117//1 115//1 121//1
f 115//1 113//1 121//1
f 89//1 87//1 121//1
f 87//1 86//1 121//1
f 121//1 86//1 120//1
f 101//1 99//1 121//1
f 99//1 97//1 121//1
f 113//1 111//1 121//1
f 111//1 109//1 121//1
f 121//1 109//1 107//1
f 107//1 105//1 121//1
f 105//1 103//1 121//1
f 121//1 103//1 101//1
f 97//1 95//1 121//1
f 95//1 93//1 121//1
f 121//1 93//1 91//1
f 123//64 124//64 125//64
f 123//64 125//64 126//64
f 125//65 127//65 126//65
f 126//65 127//65 128//65
f 127//66 129//66 128//66
f 128//66 129//66 130//66
f 129//67 131//67 130//67
f 130//67 131//67 132//67
f 131//68 133//68 132//68
f 132//68 133//68 134//68
f 133//69 135//69 134//69
f 134//69 135//69 136//69
f 135//70 137//70 136//70
f 136//71 137//71 138//71
f 137//72 139//72 138//72
f 138//72 139//72 140//72
f 139//73 141//73 140//73
f 140//74 141//74 142//74
f 141//75 143//75 142//75
f 142//75 143//75 144//75
f 143//76 145//76 144//76
f 144//76 145//76 146//76
f 145//77 147//77 146//77
f 146//78 147//78 148//78
f 147//79 149//79 148//79
f 148//79 149//79 150//79
f 149//80 151//80 150//80
f 150//80 151//80 152//80
f 151//81 153//81 152//81
f 152//82 153//82 154//82
f 153//4 155//4 154//4
f 155//4 156//4 154//4
f 123//6 157//6 124//6
f 157//6 158//6 124//6
f 159//5 158//5 160//5
f 158//5 157//5 160//5
f 155//3 159//3 156//3
f 159//3 160//3 156//3
f 129//1 127//1 159//1
f 155//1 153//1 159//1
f 153//1 151//1 159//1
f 127//1 125//1 159//1
f 125//1 124//1 159//1
f 159//1 124//1 158//1
f 139//1 137//1 159//1
f 137//1 135//1 159//1
f 151//1 149//1 159//1
f 149//1 147//1 159//1
f 159//1 147//1 145//1
f 145//1 143//1 159//1
f 143//1 141//1 159//1
f 159//1 141//1 139//1
f 135//1 133//1 159//1
f 133//1 131//1 159//1
f 159//1 131//1 129//1
f 154//2 156//2 160//2
f 154//2 160//2 152//2
f 157//2 123//2 160//2
f 123//2 126//2 160//2
f 126//2 128//2 160//2
f 128//2 130//2 160//2
f 160//2 130//2 132//2
f 160//2 138//2 140//2
f 132//2 134//2 160//2
f 134//2 136//2 160//2
f 160//2 136//2 138//2
f 140//2 142//2 160//2
f 142//2 144//2 160//2
f 160//2 144//2 146//2
f 146//2 148//2 160//2
f 148//2 150//2 160//2
f 160//2 150//2 152//2
